<?xml version="1.0" standalone="no"?>
<!DOCTYPE svg PUBLIC "-//W3C//DTD SVG 1.1//EN" "http://www.w3.org/Graphics/SVG/1.1/DTD/svg11.dtd">
<svg width="500px" height="650px" version="1.1" xmlns="http://www.w3.org/2000/svg" xmlns:xlink="http://www.w3.org/1999/xlink" xml:space="preserve" style="fill-rule:evenodd;clip-rule:evenodd;stroke-linejoin:round;stroke-miterlimit:1.41421;">
    <g>
        <g>
            <path d="M499.88,-1.42109e-14L500,408.025C500,440.764 495.348,471.867 486.043,501.333C476.739,530.798 462.032,556.543 441.922,578.568C421.813,600.593 396.001,618.005 364.486,630.803C332.971,643.601 294.702,650 249.681,650C205.26,650 167.292,643.601 135.777,630.803C104.262,618.005 78.4498,600.593 58.3402,578.568C38.2307,556.543 23.5237,530.798 14.2192,501.333C4.91483,471.867 0.262619,440.764 0.262619,408.025L0,-1.42109e-14L61.8101,-1.42109e-14L145.314,393.714L146.597,393.714L212.096,-1.42109e-14L288.14,-1.42109e-14L353.666,393.714L354.948,393.714L438.85,-1.42109e-14C438.85,-1.42109e-14 499.88,-1.42109e-14 499.88,-1.42109e-14Z" style="fill:rgb(64,64,64);"/>
        </g>
        <g>
            <path d="M61.2747,235.911L60.959,391.212C60.959,427.799 65.1246,458.927 73.4557,484.597C81.7869,510.267 93.9862,531.216 110.053,547.444C126.121,563.671 145.759,575.474 168.967,582.85C192.175,590.226 218.359,593.915 247.518,593.915C277.272,593.915 303.753,590.226 326.962,582.85C350.17,575.474 369.808,563.671 385.875,547.444C401.942,531.216 414.142,510.267 422.473,484.597C430.804,458.927 434.97,427.799 434.97,391.212L435.048,235.911L388.888,455.805L313.513,455.805L248.578,91.1357L247.307,91.1357L182.202,455.805L107.077,455.805Z" style="fill:rgb(102,204,255);"/>
        </g>
    </g>
</svg>
